o Default
v 1 1 -3
v 1 2 -3
v -1 2 -3
v -1 1 -3
v -1 1 -3
v -3 2 -1
v -1 2 -3
v -3 1 -1
v -3 1 -1
v -3 2 1
v -3 2 -1
v -3 1 1
v -3 1 1
v -1 2 3
v -3 2 1
v -1 1 3
v -1 1 3
v 1 2 3
v -1 2 3
v 1 1 3
v 1 1 3
v 3 2 1
v 1 2 3
v 3 1 1
v 3 1 1
v 3 2 -1
v 3 2 1
v 3 1 -1
v 3 1 -1
v 1 2 -3
v 3 2 -1
v 1 1 -3
v -1 3.0003199577331543 -1.0006498098373413
v 1 2 -3
v -1 2 -3
v 1 3.0003199577331543 -1.0006498098373413
v -3 2 -1
v -1 2 -3
v -1 2 -3
v -1 3.0003199577331543 -1.0006498098373413
v 1 3.0003199577331543 -1.0006498098373413
v 3 2 -1
v 1 2 -3
v 3 2 -1
v 1 2 3
v 3 2 1
v 1 3.0001471042633057 0.9989499449729919
v 1 2 3
v -1 2 3
v 1 3.0001471042633057 0.9989499449729919
v -1 3.000094413757324 0.9989499449729919
v 1 2 3
v -1 2 3
v -1 3.000094413757324 0.9989499449729919
v -3 2 1
v -1 2 3
v -3 2 1
v -1 3.0003199577331543 -1.0006498098373413
v -3 2 -1
v -1 3.000094413757324 0.9989499449729919
v 1 3.0001471042633057 0.9989499449729919
v 3 2 -1
v 1 3.0003199577331543 -1.0006498098373413
v 3 2 1
v -1 3.000094413757324 0.9989499449729919
v 1 3.0003199577331543 -1.0006498098373413
v -1 3.0003199577331543 -1.0006498098373413
v 1 3.0001471042633057 0.9989499449729919
v -3 1 -1
v 3 1 1
v -3 1 1
v 3 1 -1
v -1 1 -3
v 1 1.000736117362976 -1.000599980354309
v -1 1.000736117362976 -1.000599980354309
v 1 1 -3
v -1 1.0009373426437378 0.9997999668121338
v 1 1 3
v -1 1 3
v 1 1.0009373426437378 0.9997999668121338
v 1 1.0009373426437378 0.9997999668121338
v 2 1.001131534576416 1.9997999668121338
v 1 1 3
v 3 1 1
v 1 1 -3
v 3 1 -1
v 1 1.000736117362976 -1.000599980354309
v 2 1.0005929470062256 -2.0006000995635986
v -2 1.0006109476089478 -2.0006000995635986
v -1 1.000736117362976 -1.000599980354309
v -3 1 -1
v -1 1 -3
v -3 1 1
v -1 1 3
v -2 1.0010757446289062 1.9997999668121338
v -1 1.0009373426437378 0.9997999668121338
vt 0 0
vt 0.0625 0.375
vt 0 0.375
vt 0 0
vt 0.0625 0
vt 0.0625 0.375
vt 0.0625 0
vt 0.125 0.375
vt 0.0625 0.375
vt 0.0625 0
vt 0.125 0
vt 0.125 0.375
vt 0.125 0
vt 0.1875 0.375
vt 0.125 0.375
vt 0.125 0
vt 0.1875 0
vt 0.1875 0.375
vt 0.1875 0
vt 0.25 0.375
vt 0.1875 0.375
vt 0.1875 0
vt 0.25 0
vt 0.25 0.375
vt 0.25 0
vt 0.3125 0.375
vt 0.25 0.375
vt 0.25 0
vt 0.3125 0
vt 0.3125 0.375
vt 0.3125 0
vt 0.375 0.375
vt 0.3125 0.375
vt 0.3125 0
vt 0.375 0
vt 0.375 0.375
vt 0.375 0
vt 0.4375 0.375
vt 0.375 0.375
vt 0.375 0
vt 0.4375 0
vt 0.4375 0.375
vt 0.4375 0
vt 0.5 0.375
vt 0.4375 0.375
vt 0.4375 0
vt 0.5 0
vt 0.5 0.375
vt 0.6875 0.375
vt 0.75 0.5
vt 0.6875 0.5
vt 0.6875 0.375
vt 0.75 0.375
vt 0.75 0.5
vt 0.8125 0.375
vt 0.75 0.5
vt 0.8125 0.5
vt 0.8125 0.375
vt 0.75 0.375
vt 0.75 0.5
vt 0.6875 0.375
vt 0.625 0.5
vt 0.6875 0.5
vt 0.6875 0.375
vt 0.625 0.375
vt 0.625 0.5
vt 0.6875 0.625
vt 0.625 0.75
vt 0.6875 0.75
vt 0.6875 0.625
vt 0.625 0.625
vt 0.625 0.75
vt 0.75 0.625
vt 0.6875 0.75
vt 0.75 0.75
vt 0.75 0.625
vt 0.6875 0.625
vt 0.6875 0.75
vt 0.8125 0.625
vt 0.75 0.75
vt 0.8125 0.75
vt 0.8125 0.625
vt 0.75 0.625
vt 0.75 0.75
vt 0.6875 0.5
vt 0.625 0.625
vt 0.6875 0.625
vt 0.6875 0.5
vt 0.625 0.5
vt 0.625 0.625
vt 0.8125 0.5
vt 0.75 0.625
vt 0.8125 0.625
vt 0.8125 0.5
vt 0.75 0.5
vt 0.75 0.625
vt 0.8125 0.5
vt 0.75 0.625
vt 0.8125 0.625
vt 0.8125 0.5
vt 0.75 0.5
vt 0.75 0.625
vt 0.375 0.5
vt 0.1875 0.625
vt 0.375 0.625
vt 0.375 0.5
vt 0.1875 0.5
vt 0.1875 0.625
vt 0.1875 0.5
vt 0.125 0.625
vt 0.1875 0.625
vt 0.1875 0.5
vt 0.125 0.5
vt 0.125 0.625
vt 0.1875 0.5
vt 0.125 0.625
vt 0.1875 0.625
vt 0.1875 0.5
vt 0.125 0.5
vt 0.125 0.625
vt 0.1875 0.5
vt 0.125 0.625
vt 0.1875 0.625
vt 0.1875 0.5
vt 0.125 0.5
vt 0.125 0.625
vt 0.1875 0.5
vt 0.125 0.625
vt 0.1875 0.625
vt 0.1875 0.5
vt 0.125 0.5
vt 0.125 0.625
vt 0.1875 0.5
vt 0.125 0.625
vt 0.1875 0.625
vt 0.1875 0.5
vt 0.125 0.5
vt 0.125 0.625
vt 0.1875 0.5
vt 0.125 0.625
vt 0.1875 0.625
vt 0.1875 0.5
vt 0.125 0.5
vt 0.125 0.625
vn 0 0 -1
vn 0 0 -1
vn 0 0 -1
vn 0 0 -1
vn 0 0 -1
vn 0 0 -1
vn -0.7071067811865475 0 -0.7071067811865475
vn -0.7071067811865475 0 -0.7071067811865475
vn -0.7071067811865475 0 -0.7071067811865475
vn -0.7071067811865475 0 -0.7071067811865475
vn -0.7071067811865475 0 -0.7071067811865475
vn -0.7071067811865475 0 -0.7071067811865475
vn -1 0 0
vn -1 0 0
vn -1 0 0
vn -1 0 0
vn -1 0 0
vn -1 0 0
vn -0.7071067811865475 0 0.7071067811865475
vn -0.7071067811865475 0 0.7071067811865475
vn -0.7071067811865475 0 0.7071067811865475
vn -0.7071067811865475 0 0.7071067811865475
vn -0.7071067811865475 0 0.7071067811865475
vn -0.7071067811865475 0 0.7071067811865475
vn 0 0 1
vn 0 0 1
vn 0 0 1
vn 0 0 1
vn 0 0 1
vn 0 0 1
vn 0.7071067811865475 0 0.7071067811865475
vn 0.7071067811865475 0 0.7071067811865475
vn 0.7071067811865475 0 0.7071067811865475
vn 0.7071067811865475 0 0.7071067811865475
vn 0.7071067811865475 0 0.7071067811865475
vn 0.7071067811865475 0 0.7071067811865475
vn 1 0 0
vn 1 0 0
vn 1 0 0
vn 1 0 0
vn 1 0 0
vn 1 0 0
vn 0.7071067811865475 0 -0.7071067811865475
vn 0.7071067811865475 0 -0.7071067811865475
vn 0.7071067811865475 0 -0.7071067811865475
vn 0.7071067811865475 0 -0.7071067811865475
vn 0.7071067811865475 0 -0.7071067811865475
vn 0.7071067811865475 0 -0.7071067811865475
vn 0 0.8943117820918827 -0.4474443388977462
vn 0 0.8943117820918827 -0.4474443388977462
vn 0 0.8943117820918827 -0.4474443388977462
vn 0 0.8943117820918827 -0.4474443388977462
vn 0 0.8943117820918827 -0.4474443388977462
vn 0 0.8943117820918827 -0.4474443388977462
vn 0 0 0
vn 0 0 0
vn 0 0 0
vn -0.4084238002713252 0.8163210145180984 -0.4084238002713252
vn -0.4084238002713252 0.8163210145180984 -0.4084238002713252
vn -0.4084238002713252 0.8163210145180984 -0.4084238002713252
vn 0.4084238002713252 0.8163210145180984 -0.4084238002713252
vn 0.4084238002713252 0.8163210145180984 -0.4084238002713252
vn 0.4084238002713252 0.8163210145180984 -0.4084238002713252
vn 0 0 0
vn 0 0 0
vn 0 0 0
vn 0.4081454673406994 0.8165993846302385 0.4081454673406994
vn 0.4081454673406994 0.8165993846302385 0.4081454673406994
vn 0.4081454673406994 0.8165993846302385 0.4081454673406994
vn 0 0 0
vn 0 0 0
vn 0 0 0
vn -0.00002356593877134954 0.8945041742301036 0.4470595952773709
vn -0.00002356593877134954 0.8945041742301036 0.4470595952773709
vn -0.00002356593877134954 0.8945041742301036 0.4470595952773709
vn 0 0.8944947553838275 0.4470784412055971
vn 0 0.8944947553838275 0.4470784412055971
vn 0 0.8944947553838275 0.4470784412055971
vn -0.4081311285344726 0.8166137176427761 0.4081311285344726
vn -0.4081311285344726 0.8166137176427761 0.4081311285344726
vn -0.4081311285344726 0.8166137176427761 0.4081311285344726
vn 0 0 0
vn 0 0 0
vn 0 0 0
vn -0.44732805607074155 0.8943699515591809 0
vn -0.44732805607074155 0.8943699515591809 0
vn -0.44732805607074155 0.8943699515591809 0
vn -0.4472473283877768 0.8944103180712362 0.0001008846188723232
vn -0.4472473283877768 0.8944103180712362 0.0001008846188723232
vn -0.4472473283877768 0.8944103180712362 0.0001008846188723232
vn 0.44732803464092274 0.8943699589358969 0.000077312947432879
vn 0.44732803464092274 0.8943699589358969 0.000077312947432879
vn 0.44732803464092274 0.8943699589358969 0.000077312947432879
vn 0.4472662227985505 0.8944008754152231 0
vn 0.4472662227985505 0.8944008754152231 0
vn 0.4472662227985505 0.8944008754152231 0
vn 0 0.9999999936386936 0.00011279455993767972
vn 0 0.9999999936386936 0.00011279455993767972
vn 0 0.9999999936386936 0.00011279455993767972
vn -0.00002634525288314651 0.9999999959166782 0.00008644403397579534
vn -0.00002634525288314651 0.9999999959166782 0.00008644403397579534
vn -0.00002634525288314651 0.9999999959166782 0.00008644403397579534
vn 0 -1 0
vn 0 -1 0
vn 0 -1 0
vn 0 -1 0
vn 0 -1 0
vn 0 -1 0
vn 0 -0.9999999322257533 0.0003681691036577664
vn 0 -0.9999999322257533 0.0003681691036577664
vn 0 -0.9999999322257533 0.0003681691036577664
vn 0 -0.9999999322257533 0.0003681691036577664
vn 0 -0.9999999322257533 0.0003681691036577664
vn 0 -0.9999999322257533 0.0003681691036577664
vn 0 -0.9999998901955798 -0.00046862440019037276
vn 0 -0.9999998901955798 -0.00046862440019037276
vn 0 -0.9999998901955798 -0.00046862440019037276
vn 0 -0.9999998901955798 -0.00046862440019037276
vn 0 -0.9999998901955798 -0.00046862440019037276
vn 0 -0.9999998901955798 -0.00046862440019037276
vn 0.0006628161659494693 -0.9999996705329449 -0.0004686242972510909
vn 0.0006628161659494693 -0.9999996705329449 -0.0004686242972510909
vn 0.0006628161659494693 -0.9999996705329449 -0.0004686242972510909
vn -0.0004687374713317226 -0.9999996704048822 0.0006629293400052323
vn -0.0004687374713317226 -0.9999996704048822 0.0006629293400052323
vn -0.0004687374713317226 -0.9999996704048822 0.0006629293400052323
vn -0.000368169078705386 -0.9999998644515202 0.000368169078705386
vn -0.000368169078705386 -0.9999998644515202 0.000368169078705386
vn -0.000368169078705386 -0.9999998644515202 0.000368169078705386
vn 0.5750288709931448 -0.5819652868072961 -0.5750288709931448
vn 0.5750288709931448 -0.5819652868072961 -0.5750288709931448
vn 0.5750288709931448 -0.5819652868072961 -0.5750288709931448
vn 0.000367985803293067 -0.9999999028134067 -0.00024281603248364192
vn 0.000367985803293067 -0.9999999028134067 -0.00024281603248364192
vn 0.000367985803293067 -0.9999999028134067 -0.00024281603248364192
vn -0.00024299939482750889 -0.9999999027014018 0.0003681690927878116
vn -0.00024299939482750889 -0.9999999027014018 0.0003681690927878116
vn -0.00024299939482750889 -0.9999999027014018 0.0003681690927878116
vn -0.7010725258678755 0.13036344175601675 0.7010725258678755
vn -0.7010725258678755 0.13036344175601675 0.7010725258678755
vn -0.7010725258678755 0.13036344175601675 0.7010725258678755
vn 0.00046862434873335345 -0.9999997803911957 -0.00046862434873335345
vn 0.00046862434873335345 -0.9999997803911957 -0.00046862434873335345
vn 0.00046862434873335345 -0.9999997803911957 -0.00046862434873335345
g Scene
f 1/1/1 3/2/2 2/3/3
f 1/4/4 4/5/5 3/6/6
f 5/7/7 6/8/8 7/9/9
f 5/10/10 8/11/11 6/12/12
f 9/13/13 10/14/14 11/15/15
f 9/16/16 12/17/17 10/18/18
f 13/19/19 14/20/20 15/21/21
f 13/22/22 16/23/23 14/24/24
f 17/25/25 18/26/26 19/27/27
f 17/28/28 20/29/29 18/30/30
f 21/31/31 22/32/32 23/33/33
f 21/34/34 24/35/35 22/36/36
f 25/37/37 26/38/38 27/39/39
f 25/40/40 28/41/41 26/42/42
f 29/43/43 30/44/44 31/45/45
f 29/46/46 32/47/47 30/48/48
f 33/49/49 34/50/50 35/51/51
f 33/52/52 36/53/53 34/54/54
f 37/55/55 38/56/56 39/57/57
f 37/58/58 40/59/59 38/60/60
f 41/61/61 42/62/62 43/63/63
f 41/64/64 44/65/65 42/66/66
f 45/67/67 46/68/68 47/69/69
f 45/70/70 48/71/71 46/72/72
f 49/73/73 50/74/74 51/75/75
f 49/76/76 52/77/77 50/78/78
f 53/79/79 54/80/80 55/81/81
f 53/82/82 56/83/83 54/84/84
f 57/85/85 58/86/86 59/87/87
f 57/88/88 60/89/89 58/90/90
f 61/91/91 62/92/92 63/93/93
f 61/94/94 64/95/95 62/96/96
f 65/97/97 66/98/98 67/99/99
f 65/100/100 68/101/101 66/102/102
f 69/103/103 70/104/104 71/105/105
f 69/106/106 72/107/107 70/108/108
f 73/109/109 74/110/110 75/111/111
f 73/112/112 76/113/113 74/114/114
f 77/115/115 78/116/116 79/117/117
f 77/118/118 80/119/119 78/120/120
f 81/121/121 82/122/122 83/123/123
f 81/124/124 84/125/125 82/126/126
f 85/127/127 86/128/128 87/129/129
f 85/130/130 88/131/131 86/132/132
f 89/133/133 90/134/134 91/135/135
f 89/136/136 92/137/137 90/138/138
f 93/139/139 94/140/140 95/141/141
f 93/142/142 96/143/143 94/144/144
